<?xml version="1.0" encoding="UTF-8" standalone="no"?>
<!-- Generator: Gravit.io -->

<svg
   xmlns:dc="http://purl.org/dc/elements/1.1/"
   xmlns:cc="http://creativecommons.org/ns#"
   xmlns:rdf="http://www.w3.org/1999/02/22-rdf-syntax-ns#"
   xmlns:svg="http://www.w3.org/2000/svg"
   xmlns="http://www.w3.org/2000/svg"
   xmlns:sodipodi="http://sodipodi.sourceforge.net/DTD/sodipodi-0.dtd"
   xmlns:inkscape="http://www.inkscape.org/namespaces/inkscape"
   style="isolation:isolate"
   width="864"
   height="174.93333"
   id="svg2"
   version="1.1"
   inkscape:version="0.92.1 r15371"
   sodipodi:docname="jcu-CoTR-logo-rev.svg">
  <metadata
     id="metadata14">
    <rdf:RDF>
      <cc:Work
         rdf:about="">
        <dc:format>image/svg+xml</dc:format>
        <dc:type
           rdf:resource="http://purl.org/dc/dcmitype/StillImage" />
        <dc:title></dc:title>
      </cc:Work>
    </rdf:RDF>
  </metadata>
  <defs
     id="defs12" />
  <sodipodi:namedview
     pagecolor="#ff7eff"
     bordercolor="#666666"
     borderopacity="1"
     objecttolerance="10"
     gridtolerance="10"
     guidetolerance="10"
     inkscape:pageopacity="0"
     inkscape:pageshadow="2"
     inkscape:window-width="2066"
     inkscape:window-height="1221"
     id="namedview10"
     showgrid="false"
     inkscape:zoom="1.5"
     inkscape:cx="409.30443"
     inkscape:cy="82"
     inkscape:window-x="265"
     inkscape:window-y="63"
     inkscape:window-maximized="0"
     inkscape:current-layer="text4142"
     inkscape:pagecheckerboard="true" />
  <path
     d="m 104.81973,63.1072 c 0,-5.397333 -0.10026,-6.3808 -6.53013,-7.3088 v -0.740267 h 16.89067 V 55.7984 c -5.89227,0.778667 -6.04267,2.254933 -6.04267,7.3088 v 17.573333 c 0.0533,9.525334 -1.07733,11.637334 -11.729067,16.202667 L 97.017067,96.046933 C 104.232,92.657067 104.81973,87.3568 104.81973,78.525867 V 63.1072 m 18.57494,11.338667 c -0.832,2.4608 -2.99734,7.566933 -2.99734,9.92 0,2.997333 3.38667,2.997333 5.5968,3.336533 v 0.736 h -13.45066 v -0.736 c 4.3712,-1.178667 4.80746,-2.157867 6.33173,-5.992533 l 5.5424,-14.478934 2.95467,-8 c 0.43413,-1.28 1.07733,-2.456533 0.53546,-3.384533 1.328,-0.544 2.54934,-1.421867 3.584,-2.651733 l 10.8,28.762666 c 1.3184,3.5872 2.16214,5.006934 6.0832,5.745067 v 0.736 h -14.432 v -0.736 c 1.7216,-0.389333 3.78347,-0.935467 3.78347,-3.136 0,-2.069333 -1.8688,-6.682667 -3.14133,-10.120533 H 123.3936 Z m 5.4464,-15.018667 -4.61547,12.759467 h 9.71733 z m 43.29386,21.847467 8.88534,-19.541334 c 1.23093,-2.695466 1.91466,-5.156266 0.832,-5.888 L 181.95893,55.056 h 10.7872 v 0.738133 c -3.13386,0.64 -5.04853,1.8176 -4.85546,5.253334 l 1.0816,17.870933 c 0.5408,6.8192 0.5408,7.904 5.792,8.785067 v 0.736 H 178.6192 v -0.736 c 3.7792,-0.586667 6.1824,-1.032534 5.93387,-5.349334 L 183.2304,60.903467 h -0.10027 l -12.512,27.536 H 170.0784 L 158.44533,62.032 h -0.096 c -0.78933,7.509333 -1.17973,12.96 -1.52533,20.562133 -0.096,1.914667 -0.0491,4.128 5.89227,5.109334 v 0.736 h -13.6896 v -0.736 c 4.36266,-0.736 4.80426,-2.848 5.49333,-6.8224 l 1.81333,-13.792 0.64214,-6.679467 c 0.29333,-3.239467 -2.50667,-4.369067 -5.39947,-4.6144 v -0.736 h 10.5984 l 0.0512,0.538667 c -1.07947,1.130666 0.24,4.077866 0.59307,4.859733 l 9.3184,20.817067 m 24.64426,6.427733 c 5.89654,-0.784 5.94134,-2.258133 6.08534,-7.310933 V 63.1072 c -0.14294,-5.053867 -0.18774,-6.530133 -6.08427,-7.3088 v -0.740267 h 26.36053 l -0.5888,7.557334 h -0.736 C 221.47467,56.288 216.90507,56.2336 211.94933,56.2336 H 207.192 V 70.224 h 5.09867 c 3.6864,0 6.48533,-0.293333 7.02506,-4.512 h 0.736 v 10.944 h -0.736 c -0.64213,-4.3168 -3.33866,-4.373333 -7.02613,-4.373333 h -5.09867 V 80.336 c 0,2.8928 -0.688,6.920533 7.36,6.920533 6.18987,0 9.22987,-2.352 10.45334,-8.541866 h 0.736 C 225.6944,82.448 225.05973,85.4912 224.0784,88.4352 h -27.296 v -0.736 m 51.44853,-24.001067 h -0.78613 c -0.78613,-3.975466 -2.06293,-7.808 -6.92053,-7.808 -3.14667,0 -5.74507,2.1632 -5.74507,5.4016 0,8.4928 15.46133,8.1984 15.46133,18.117334 0,6.328533 -6.28693,9.621333 -11.92746,9.621333 -2.99734,0 -6.13974,-0.881067 -8.63787,-2.506667 L 228.25227,78.1792 h 0.88213 c 1.22133,4.7168 4.5152,9.378133 9.91467,9.378133 3.6288,0 6.48533,-2.16 6.48533,-5.989333 0,-8.7392 -15.02187,-7.950933 -15.02187,-17.7728 0,-5.741867 5.69174,-9.371733 10.944,-9.371733 2.496,0 5.00267,0.731733 7.168,1.909333 l -0.39466,7.365333 m 43.4528,1.474134 H 290.9424 C 290.00693,59.6192 286.76853,55.6512 280.88053,55.6512 c -8.98773,0 -14.048,7.357867 -14.048,15.803733 0,9.674667 7.4176,16.391467 14.53867,16.391467 6.4256,0 8.9792,-4.7072 11.18933,-10.005333 l 0.69334,0.293333 c -0.59734,2.997333 -1.52534,5.941333 -2.7072,8.785067 -3.14134,1.52 -6.5248,2.112 -10.01387,2.112 -10.2656,0 -19.38987,-5.8912 -19.38987,-16.986667 0,-8.736 6.8192,-17.573333 19.78454,-17.573333 3.728,0 7.51146,0.736 10.75413,2.6496 V 65.1744 m 40.05867,6.574933 c 0,10.5568 -7.65334,17.2768 -17.96267,17.2768 -10.35733,0 -17.97013,-6.72 -17.97013,-17.322666 0,-10.461867 7.65866,-17.234134 17.92213,-17.234134 12.56533,0 18.01173,8.541867 18.01173,17.28 m -30.24,-1.230933 c 0,7.6096 4.032,17.328 12.864,17.328 8.096,0 11.6864,-8.2432 11.6864,-15.256533 -0.14933,-8.6976 -5.20213,-16.9408 -12.72,-16.9408 -8.44373,0 -11.82933,8.2432 -11.82933,14.869333 m 69.66507,1.230933 c 0,10.5568 -7.65654,17.2768 -17.96587,17.2768 -10.3616,0 -17.96587,-6.72 -17.96587,-17.322666 0,-10.461867 7.65867,-17.234134 17.92,-17.234134 12.56854,0 18.01067,8.541867 18.01067,17.28 M 340.9296,70.5184 c 0,7.6096 4.02347,17.328 12.85973,17.328 8.10667,0 11.68427,-8.2432 11.68427,-15.256533 -0.14933,-8.6976 -5.20533,-16.9408 -12.71787,-16.9408 -8.4352,0 -11.824,8.2432 -11.824,14.869333 m 41.54454,9.873067 c 0.1472,5.056 0.192,6.528 6.5248,7.310933 v 0.736 H 372.0656 v -0.736 c 5.89653,-0.784 5.93707,-2.254933 6.08427,-7.310933 V 63.1072 c -0.14934,-5.053867 -0.1888,-6.530133 -6.08534,-7.3088 v -0.741333 h 15.60534 v 0.7424 c -5.00267,0.778666 -5.04747,2.254933 -5.19467,7.3088 V 80.392533 Z M 404.66293,55.058133 V 55.7984 c -5.59466,0.586667 -9.32266,5.346133 -12.96,9.127467 l -4.6144,4.913066 9.96694,10.9888 c 2.99413,3.288534 6.53226,6.229334 10.89493,7.456 l -0.2496,0.746667 c -8.5376,-0.690133 -9.90933,-0.933333 -14.528,-5.989333 l -10.016,-10.901334 7.90613,-8.589866 c 5.152,-5.792 4.17067,-7.413334 0.88214,-7.752534 V 55.056 h 12.71466 m -268.0288,46.0768 v 0.736 c -4.4672,0.4864 -4.76586,3.24267 -4.96,9.7216 l -0.29333,10.74667 c -0.14613,6.3424 -2.848,12.76586 -13.74507,12.76586 -15.216,0 -13.64266,-10.99733 -13.64266,-14.92266 v -10.9952 c -0.15147,-5.06027 -0.1984,-6.53014 -6.09067,-7.3152 v -0.736 h 16.93653 v 0.736 c -6.43413,0.93226 -6.53013,1.9136 -6.53013,7.3152 v 10.06186 c 0,0.93227 -1.5712,13.60214 11.87947,13.60214 10.6048,0 9.57546,-10.112 9.57546,-16.10987 v -5.14773 c 0,-6.23574 -0.49066,-9.08267 -7.36533,-9.72054 v -0.736 h 14.23467 m 34.15573,25.6704 -0.24533,-17.91573 c -0.0427,-4.672 -1.32587,-6.04373 -6.86934,-7.02187 v -0.736 H 177.064 v 0.736 c -3.38133,0.43947 -4.01707,2.304 -4.41387,5.49547 -0.68693,5.39733 -0.43946,17.23093 -0.1952,27.93173 l -0.63146,0.14934 c -7.856,-9.27574 -16.59734,-17.872 -24.896,-26.80854 v 9.0368 c 0,12.176 -0.288,14.67734 6.82666,16.10134 v 0.74026 h -14.66986 v -0.74026 c 6.62186,-0.68267 6.37866,-5.20534 6.37866,-16.34454 v -7.3664 c 0,-4.90666 -0.78933,-6.82346 -7.0208,-8.1952 v -0.736 h 8.0992 l 24.24534,25.67254 m 18.784,-0.3392 c 0.14186,5.056 0.20266,6.52586 6.08,7.31093 v 0.74027 h -16.4864 V 133.776 c 5.888,-0.78507 5.94133,-2.25493 6.08,-7.31093 v -17.28 c -0.13867,-5.06134 -0.192,-6.5312 -6.08,-7.31734 v -0.736 h 16.4864 v 0.736 c -5.87734,0.78614 -5.93814,2.256 -6.08,7.31734 z m 44.0256,-25.33227 v 0.736 c -4.61334,0.39467 -6.032,4.26667 -9.07734,11.38773 l -9.38133,22.38507 h -0.67947 l -11.0912,-26.55147 c -1.47413,-3.5904 -2.6048,-6.736 -6.97173,-7.22133 v -0.736 h 15.55413 v 0.736 c -6.91946,0.68267 -4.66133,4.61333 -3.3888,7.70453 l 7.85387,18.94934 5.80267,-13.888 c 4.21546,-10.0672 5.00053,-11.68747 -2.46187,-12.76587 v -0.736 h 13.84107 m 0.448,32.6432 c 5.8944,-0.78507 5.94133,-2.25493 6.09066,-7.31093 v -17.28 c -0.14933,-5.06134 -0.19626,-6.5312 -6.09066,-7.31734 v -0.736 h 26.36053 l -0.5888,7.5552 h -0.73387 c -0.3488,-6.3328 -4.91306,-6.37866 -9.8688,-6.37866 H 244.456 v 13.99253 h 5.10507 c 3.67573,0 6.47466,-0.29333 7.01866,-4.51947 h 0.736 V 122.736 h -0.736 c -0.64,-4.32213 -3.34293,-4.368 -7.01866,-4.368 H 244.456 v 8.04587 c 0,2.89386 -0.68907,6.91733 7.36,6.91733 6.18667,0 9.23733,-2.352 10.45333,-8.53867 h 0.74027 c -0.0469,3.73014 -0.68907,6.77547 -1.66827,9.72374 h -27.296 V 133.776 m 36.95894,-22.53547 c 0,-7.5072 -0.2496,-8.63786 -5.7472,-9.12853 v -0.6848 L 277.24,101.03253 c 12.36693,-0.3904 13.3472,5.6448 13.3472,8.00427 0,4.11947 -2.55147,6.47467 -6.08747,8.05333 l 0.2432,0.34134 c 3.78667,6.624 8.4928,15.0688 16.59734,16.74453 l -0.14934,0.73067 c -5.2096,-0.24854 -9.03466,-0.096 -11.87733,-3.04 -3.23733,-3.38667 -5.792,-7.70774 -6.82027,-9.824 -1.968,-4.07467 -3.7376,-2.8928 -7.17226,-3.4848 v 7.9072 c 0,5.40053 0.096,6.37866 6.82453,7.31093 v 0.74027 h -17.232 V 133.776 c 5.89333,-0.78507 5.93813,-2.25493 6.09067,-7.31093 z m 4.31573,6.48534 c 4.71467,-0.0512 10.21333,-2.2144 10.21333,-7.6608 0,-5.744 -5.056,-8.048 -10.21226,-8 v 15.66186 m 44.5952,-7.9552 h -0.78187 c -0.78507,-3.97866 -2.06187,-7.808 -6.92053,-7.808 -3.14667,0 -5.73867,2.16 -5.73867,5.40054 -0.002,8.49066 15.45173,8.19733 15.45173,18.11626 0,6.3296 -6.28266,9.62134 -11.9232,9.62134 -2.99733,0 -6.13866,-0.88107 -8.64533,-2.51094 l -1.4208,-8.336 h 0.88213 c 1.23094,4.71147 4.5152,9.3728 9.92,9.3728 3.632,0 6.47467,-2.15466 6.47467,-5.9808 0,-8.74346 -15.01547,-7.95733 -15.01547,-17.7792 0,-5.74506 5.6896,-9.37386 10.93867,-9.37386 2.50667,0 5.00907,0.73386 7.17333,1.91466 l -0.39466,7.36 m 14.352,16.69654 c 0.14933,5.056 0.20266,6.52586 6.09066,7.31093 v 0.74027 H 323.864 V 133.776 c 5.8944,-0.78507 5.94667,-2.25493 6.09067,-7.31093 l 0.002,-17.28 c -0.14613,-5.06134 -0.19733,-6.5312 -6.0928,-7.31734 v -0.736 h 16.49493 v 0.736 c -5.888,0.78614 -5.94133,2.256 -6.09066,7.31734 z M 372.7792,99.6128 h 0.38613 l 0.69334,9.17653 -0.69334,0.1472 c -1.71733,-6.09066 -4.4128,-6.33386 -10.05653,-6.33386 h -2.95467 v 22.688 c 0,6.08 0.29867,7.70133 6.88,8.48533 v 0.74453 H 348.968 V 133.776 c 6.57387,-0.78507 6.87253,-2.4064 6.87253,-8.4864 v -22.688 h -2.9408 c -5.6512,0 -8.352,0.24533 -10.06933,6.336 l -0.68267,-0.14933 0.68267,-9.173337 0.39467,-0.0021 0.49066,0.440527 c 1.22667,1.13067 1.42934,1.07947 3.04,1.07947 h 22.49387 c 1.616,0 1.80907,0.0512 3.04,-1.07947 l 0.49067,-0.440527 m 33.4848,1.519997 v 0.736 c -4.27414,0.34347 -6.37867,2.69867 -8.43947,6.23467 l -5.7952,11.48266 v 5.55734 c 0.10027,5.63946 0.19627,7.6512 6.47893,8.63253 v 0.74027 h -17.28 v -0.7403 c 6.28267,-0.98133 6.3872,-2.99307 6.47894,-8.6336 v -3.93173 L 382.60533,110.064 c -1.86666,-4.12267 -3.19466,-7.60747 -8.15466,-8.1952 v -0.736 H 388.008 v 0.736 c -4.032,0.54187 -3.488,2.1568 -1.91253,5.59787 l 4.90666,10.5984 4.26667,-8.096 c 3.04427,-5.6928 2.65067,-7.55734 -1.6128,-8.0992 v -0.736 h 12.61013 M 103.7776,145.2 h 299.38133 v -1.00053 H 103.7776 v 1.00266 z m 5.06133,10.16747 h 2.96854 l 8.02986,18.384 h -3.38346 l -1.85174,-4.40854 h -8.62933 l -1.87733,4.40854 h -3.28534 L 108.84,155.36853 Z m 4.58667,11.136 -3.15413,-7.2992 -3.12534,7.2992 h 6.2784 m 9.1296,-0.4992 V 155.504 h 3.21067 v 10.368 c 0,3.3888 1.73867,5.216 4.60587,5.216 2.84266,0 4.58986,-1.7216 4.58986,-5.08373 V 155.504 h 3.2032 v 10.34347 c 0,5.45066 -3.0784,8.18986 -7.85066,8.18986 -4.736,0 -7.76,-2.73813 -7.76,-8.032 m 19.31413,5.08267 1.9328,-2.28693 c 1.74187,1.4976 3.488,2.3648 5.76,2.3648 1.97333,0 3.22667,-0.91094 3.22667,-2.29974 v -0.0448 c 0,-1.30133 -0.72534,-2.01173 -4.11734,-2.78826 C 144.78667,165.0944 142.6,163.9456 142.6,160.5824 v -0.0512 c 0,-3.12747 2.60267,-5.29067 6.23253,-5.29067 2.6528,0 4.76267,0.81067 6.61867,2.2976 l -1.72267,2.42134 c -1.64266,-1.22667 -3.28533,-1.87734 -4.95466,-1.87734 -1.87734,0 -2.9696,0.96427 -2.9696,2.16534 v 0.0427 c 0,1.41227 0.832,2.04054 4.32533,2.8736 3.85387,0.94294 5.86667,2.32214 5.86667,5.344 v 0.0533 c 0,3.41333 -2.688,5.44426 -6.51734,5.44426 -2.78933,0 -5.42293,-0.96426 -7.61173,-2.91626 m 22.52373,-12.61974 h -5.792 V 155.504 h 14.81174 v 2.96533 h -5.78774 v 15.28214 h -3.232 z m 12.928,-2.96533 h 8.13227 c 2.29333,0 4.096,0.68053 5.26507,1.8176 0.9664,0.99947 1.51253,2.352 1.51253,3.936 v 0.0533 c 0,2.9952 -1.79733,4.80214 -4.3552,5.53174 l 4.93653,6.9088 h -3.78986 l -4.48,-6.3616 h -4.02134 v 6.3616 h -3.2 z m 7.89654,9.04533 c 2.29333,0 3.75466,-1.20533 3.75466,-3.056 V 161.44 c 0,-1.9552 -1.4112,-3.02187 -3.776,-3.02187 H 180.52 v 6.13334 h 4.69653 m 17.93387,-9.184 h 2.96533 l 8.03414,18.384 h -3.3888 l -1.8528,-4.40854 h -8.62614 l -1.87306,4.40854 h -3.28854 l 8.0288,-18.38294 z m 4.58347,11.136 -3.14987,-7.2992 -3.12853,7.2992 h 6.27946 m 10.064,-10.99947 h 3.21067 v 15.32587 h 9.58933 v 2.92266 h -12.8 z m 16.84267,18.24747 h 3.2064 V 155.504 h -3.20747 v 18.24747 z m 15.0656,-18.384 h 2.97067 l 8.02666,18.384 h -3.38346 l -1.8528,-4.40854 h -8.62507 l -1.87733,4.40854 h -3.28534 l 8.0256,-18.38294 z m 4.58667,11.136 -3.15307,-7.2992 -3.1296,7.2992 z M 72.810133,83.008 c -2.442666,1.415467 -5.9328,2.289067 -9.813333,2.289067 -3.880533,0 -7.3664,-0.872534 -9.813333,-2.282667 -2.437334,-1.408 -5.936,-2.289067 -9.813334,-2.289067 -3.869866,0 -7.3728,0.881067 -9.802666,2.288 -2.453334,1.410134 -5.9392,2.282667 -9.819734,2.282667 -3.879466,0 -7.370666,-0.872533 -9.809066,-2.282667 -2.448,-1.408 -5.9328003,-2.289066 -9.8176003,-2.289066 -0.3605334,0 -0.7221334,0.01067 -1.0837334,0.0288 V 89.8368 c 0,1.373867 0.0512,2.7008 0.1258667,4 0.3157333,-0.01067 0.6378667,-0.02667 0.9578667,-0.02667 3.8848,0 7.3706663,0.8832 9.8186663,2.293334 2.440534,1.408 5.930667,2.285866 9.810134,2.285866 3.880533,0 7.3664,-0.877866 9.818666,-2.285866 2.432,-1.410134 5.933867,-2.293334 9.8048,-2.293334 3.876267,0 7.374934,0.8832 9.8112,2.293334 2.448,1.408 5.933867,2.285866 9.813334,2.285866 3.882666,0 7.370666,-0.877866 9.813333,-2.289066 2.446933,-1.408 5.936,-2.289067 9.813333,-2.289067 0.3264,0 0.64,0.01707 0.955734,0.02667 0.08,-1.298134 0.128,-2.624 0.128,-4 v -9.0816 c -0.354134,-0.016 -0.711467,-0.02773 -1.0848,-0.02773 -3.8752,0 -7.364267,0.881067 -9.810134,2.282667 M 62.9968,111.472 c -3.876267,0 -7.370667,-0.8768 -9.813333,-2.2848 -2.437334,-1.41013 -5.936,-2.29333 -9.813334,-2.29333 -3.869866,0 -7.368533,0.8832 -9.802666,2.29333 -2.453334,1.408 -5.9392,2.28587 -9.819734,2.28587 -3.879466,0.004 -7.370666,-0.8768 -9.809066,-2.2848 -2.176,-1.25547 -5.1733337,-2.0864 -8.5333337,-2.25067 1.7173334,5.7536 4.2634667,10.592 7.2661337,14.71147 0.445866,0.19733 0.874666,0.39893 1.269333,0.62613 2.4384,1.408 5.928533,2.29333 9.808,2.28907 3.880533,0 7.3664,-0.88214 9.818667,-2.28907 2.4352,-1.408 5.933866,-2.2976 9.8048,-2.2976 3.876266,0 7.374933,0.88213 9.8112,2.2976 2.4448,1.408 5.938133,2.28907 9.813333,2.28907 3.882667,0 7.370667,-0.88214 9.813333,-2.28907 0.401067,-0.2272 0.8256,-0.4288 1.269334,-0.63147 3.003733,-4.11413 5.544533,-8.95253 7.266133,-14.70506 -3.368533,0.16213 -6.362667,0.992 -8.533333,2.24853 -2.4448,1.408 -5.933867,2.28587 -9.813334,2.28587 M 53.1824,135.36 c -2.4352,-1.40267 -5.934933,-2.2848 -9.810133,-2.2848 -3.872,0 -7.370667,0.88213 -9.8048,2.2848 -1.181867,0.67947 -2.600534,1.22987 -4.192,1.62133 5.632,3.7632 10.830933,6.52587 13.995733,9.17334 3.172267,-2.64747 8.370133,-5.41014 13.997867,-9.17334 -1.5872,-0.3904 -3.008,-0.9408 -4.186667,-1.62133 M 72.810133,56.837333 c -2.442666,1.4048 -5.9328,2.2912 -9.813333,2.2912 -3.880533,0 -7.3664,-0.885333 -9.813333,-2.293333 -2.437334,-1.403733 -5.936,-2.286933 -9.813334,-2.286933 -3.869866,0 -7.3728,0.8832 -9.802666,2.288 -2.453334,1.4048 -5.9392,2.2912 -9.819734,2.2912 -3.879466,0 -7.370666,-0.885334 -9.809066,-2.293334 C 11.490667,55.4304 8.0058667,54.5472 4.1210667,54.5472 c -0.3605334,0 -0.7221334,0.0128 -1.0837334,0.02987 v 13.088 C 3.4,67.6544 3.7605333,67.64054 4.1210667,67.64054 c 3.8848,0 7.3706663,0.874667 9.8186663,2.282667 2.440534,1.412267 5.930667,2.289067 9.810134,2.289067 3.880533,0 7.3664,-0.8768 9.818666,-2.289067 2.432,-1.408 5.933867,-2.282667 9.8048,-2.282667 3.876267,0 7.374934,0.874667 9.8112,2.282667 2.448,1.412267 5.933867,2.289067 9.813334,2.289067 3.882666,0 7.370666,-0.8768 9.813333,-2.289067 2.446933,-1.408 5.936,-2.282667 9.813333,-2.282667 0.373334,0 0.7296,0.0128 1.082667,0.02773 V 54.578133 c -0.422528,-0.02208 -0.660629,-0.02859 -1.083733,-0.02987 -3.8752,0 -7.364267,0.8832 -9.810134,2.288 M 43.372267,29.957333 c -7.3024,0 -13.221334,5.922134 -13.221334,13.226667 0,0.656 0.064,1.301333 0.1568,1.934933 1.213867,-0.368 2.314667,-0.829866 3.258667,-1.370666 2.432,-1.403734 5.933867,-2.288 9.8048,-2.288 3.876267,0 7.374933,0.885333 9.8112,2.285866 C 54.1264,44.288 55.2272,44.7488 56.442133,45.12 56.5328,44.4832 56.5968,43.8432 56.5968,43.181867 56.5968,35.8784 50.678933,29.9552 43.370133,29.9552 Z M 25.350933,33.8464 c -0.2592,0.04267 -0.522666,0.110933 -0.789333,0.16 -0.588818,0.09333 -0.926724,0.119947 -1.522893,0.119947 -0.198337,0 -0.309974,-0.0032 -0.50804,-0.01333 -0.6848,-0.01707 -1.496534,-0.183466 -1.952,-0.48 -0.114134,0.693334 0.7328,1.597867 1.456,2.084267 0.497066,0.3392 1.0176,0.6272 1.568,0.810667 0.213333,0.07467 0.437333,0.112 0.650666,0.192 0.658134,0.234666 1.3152,0.6592 1.824,1.114666 0.672,0.586667 1.220267,1.336534 1.733334,1.997867 0.474434,-2.210837 0.994197,-3.454891 2.2336,-5.346133 -0.698667,-0.245334 -1.453867,-0.514134 -2.272,-0.64 -0.934635,-0.139286 -1.486699,-0.139286 -2.421334,0 z m 48.232534,9.341867 -14.5216,-2.602667 c 0.1472,0.846933 0.24,1.717333 0.24,2.602667 0,0.882133 -0.09387,1.742933 -0.241067,2.5952 l 14.5216,-2.5952 z M 27.674133,40.5856 l -14.5088,2.602667 14.513067,2.5952 c -0.133333,-0.853334 -0.231467,-1.713067 -0.231467,-2.5952 0,-0.885334 0.09813,-1.755734 0.228267,-2.602667 z m 35.048534,-3.538133 c 0.16,-0.224 0.288,-0.458667 0.4544,-0.672 C 63.576,35.7888 64.0336,35.314133 64.517867,34.8608 65.0192,34.394667 65.712533,33.928533 66.2544,33.815467 c -0.411733,-0.558934 -1.658667,-0.610134 -2.5152,-0.437334 -0.5888,0.110934 -1.141333,0.266667 -1.68,0.529067 -0.209067,0.100267 -0.386133,0.229333 -0.597333,0.327467 -0.629334,0.295466 -1.389867,0.4608 -2.082134,0.498133 -0.881066,0.06187 -1.805866,-0.08107 -2.634666,-0.1888 H 56.7344 c 1.045333,1.607467 1.805867,3.413333 2.216533,5.3568 0.672,-0.3168 1.386667,-0.6592 2.058667,-1.147733 0.758558,-0.561398 1.148836,-0.950219 1.713067,-1.706667 z M 34.314133,30.0992 l -9.1264,-5.106133 5.090134,9.130666 c 1.27251,-1.82416 2.207683,-2.756853 4.0352,-4.024533 z m 22.152534,4.024533 5.0944,-9.130666 -9.125334,5.106133 c 1.827104,1.26672 2.761894,2.199776 4.032,4.024533 z M 46.0528,27.501867 43.3712,0.896 40.693867,27.5008 c 1.033716,-0.178731 1.62831,-0.232032 2.677333,-0.24 0.912,0 1.802667,0.096 2.680533,0.24 z M 34.095467,24.498133 c 0.101333,0.202667 0.231466,0.391467 0.324266,0.597334 0.302934,0.635733 0.475734,1.3888 0.509867,2.071466 0.04907,0.896 -0.08533,1.8208 -0.194133,2.64 v 0.02133 c 1.604266,-1.047467 3.419733,-1.815467 5.36,-2.224 -0.32,-0.674134 -0.656,-1.393067 -1.149867,-2.058667 -0.557779,-0.756469 -0.947756,-1.144747 -1.706667,-1.6992 -0.2208,-0.1664 -0.452266,-0.298667 -0.6752,-0.453333 -0.584533,-0.411734 -1.060266,-0.872534 -1.5168,-1.348267 -0.466133,-0.512 -0.9248,-1.197867 -1.037866,-1.738667 -0.562134,0.4128 -0.608,1.653334 -0.440534,2.514134 0.117334,0.594133 0.2688,1.1488 0.529067,1.678933 z m 18.621866,3.086934 c 0.13899,-0.935947 0.13899,-1.488587 0,-2.424534 C 52.68,24.8992 52.594667,24.642133 52.553067,24.3712 52.435733,23.671467 52.4144,23.0208 52.435733,22.344533 c 0.02987,-0.682666 0.1856,-1.504 0.4928,-1.960533 -0.6848,-0.106667 -1.5968,0.740267 -2.087466,1.464533 -0.3392,0.503467 -0.6208,1.013334 -0.810667,1.573334 -0.07467,0.2048 -0.117333,0.434133 -0.192,0.64 -0.234667,0.661333 -0.661333,1.317333 -1.109333,1.834666 -0.597334,0.657067 -1.335467,1.216 -2.007467,1.717334 l -0.0043,0.0043 c 2.213465,0.479883 3.457984,1 5.354667,2.237867 0.245333,-0.699733 0.506667,-1.457067 0.645333,-2.269867 m 436.15363,26.8373 V 173.92533"
     stroke="rgba(0,0,0,0)"
     id="path4"
     style="fill:#ffffff;fill-opacity:1;fill-rule:evenodd;stroke-width:1.06666672;stroke-linecap:butt;stroke-linejoin:miter"
     inkscape:connector-curvature="0" />
  <path
     style="stroke:#ffffff;stroke-width:1.33266664;stroke-linecap:butt;stroke-linejoin:miter;stroke-opacity:1"
     d="M 488.87094,54.42347 V 173.92532"
     id="line6" />
  <g
     aria-label="Classroom
on the Reef"
     style="font-style:normal;font-variant:normal;font-weight:normal;font-stretch:normal;font-size:12.80000019px;line-height:0%;font-family:Bliss;-inkscape-font-specification:'Bliss, Normal';text-align:start;letter-spacing:0px;word-spacing:0px;writing-mode:lr-tb;text-anchor:start;fill:#ffffff;fill-opacity:1;stroke:none;stroke-width:1.06666672px;stroke-linecap:butt;stroke-linejoin:miter;stroke-opacity:1"
     id="text4142">
    <path
       d="m 590.26489,100.70757 c -1.96267,1.10933 -4.096,1.87733 -6.82667,1.87733 -5.97333,0 -9.68533,-4.309334 -9.68533,-10.538667 0,-5.888001 3.54133,-10.666667 9.89866,-10.666667 2.77334,0 5.03467,0.682666 7.12534,1.792 v -4.181334 c -1.62134,-0.768 -4.18134,-1.408 -7.21067,-1.408 -8.78933,0 -14.592,6.528 -14.592,14.634667 0,8.234671 5.03467,14.165331 13.952,14.165331 2.73067,0 5.632,-0.512 8.576,-2.13333 z"
       style="font-style:normal;font-variant:normal;font-weight:500;font-stretch:normal;font-size:42.66666794px;line-height:100%;font-family:'Bliss 2';-inkscape-font-specification:'Bliss 2, Medium';text-align:start;writing-mode:lr-tb;text-anchor:start;fill:#ffffff;fill-opacity:1;stroke-width:1.06666672px"
       id="path827" />
    <path
       d="m 595.73622,101.6889 c 0,2.944 1.536,4.56533 4.65067,4.56533 1.06666,0 2.38933,-0.21333 3.456,-0.68266 l -0.896,-3.456 c -0.384,0.128 -0.98134,0.256 -1.28,0.256 -0.98134,0 -1.49334,-0.42667 -1.49334,-1.92 V 75.747566 h -4.43733 z"
       style="font-style:normal;font-variant:normal;font-weight:500;font-stretch:normal;font-size:42.66666794px;line-height:100%;font-family:'Bliss 2';-inkscape-font-specification:'Bliss 2, Medium';text-align:start;writing-mode:lr-tb;text-anchor:start;fill:#ffffff;fill-opacity:1;stroke-width:1.06666672px"
       id="path829" />
    <path
       d="m 619.18289,105.95557 h 3.79733 c -0.29867,-1.06667 -0.384,-2.816 -0.384,-5.71734 v -7.765331 c 0,-4.906666 -2.816,-7.210667 -7.808,-7.210667 -2.64533,0 -5.20533,0.64 -7.59467,2.005334 l 1.536,2.944 c 1.408,-0.810667 3.24267,-1.493333 5.376,-1.493333 2.38934,0 4.05334,1.109333 4.05334,3.754666 v 0.853334 l -3.62667,0.128 c -2.048,0.08533 -3.75467,0.341333 -5.16267,1.066666 -2.048,1.024 -3.37066,2.773334 -3.37066,5.461334 0,3.882667 2.77333,6.399997 6.57066,6.399997 2.51734,0 4.39467,-1.06666 5.888,-2.47466 z m -1.024,-9.600004 v 4.565334 c -0.81067,0.72533 -2.34667,1.92 -4.39467,1.92 -2.00533,0 -3.28533,-1.19467 -3.28533,-3.114667 0,-1.152 0.46933,-2.048 1.408,-2.56 0.768,-0.426667 1.792,-0.64 3.24266,-0.682667 z"
       style="font-style:normal;font-variant:normal;font-weight:500;font-stretch:normal;font-size:42.66666794px;line-height:100%;font-family:'Bliss 2';-inkscape-font-specification:'Bliss 2, Medium';text-align:start;writing-mode:lr-tb;text-anchor:start;fill:#ffffff;fill-opacity:1;stroke-width:1.06666672px"
       id="path831" />
    <path
       d="m 626.07022,104.5049 c 1.536,0.93867 3.968,1.87733 6.95467,1.87733 4.26667,0 7.97867,-1.83466 7.97867,-6.144 0,-6.997331 -9.51467,-5.631997 -9.51467,-9.301331 0,-1.578666 1.408,-2.133333 3.2,-2.133333 2.09067,0 3.84,0.554667 5.41867,1.237333 v -3.797333 c -1.536,-0.597334 -3.456,-0.981334 -5.58934,-0.981334 -4.65066,0 -7.38133,2.517334 -7.38133,5.930667 0,6.698667 9.472,5.376 9.472,9.130671 0,1.792 -1.664,2.51733 -3.79733,2.51733 -2.13334,0 -3.968,-0.72533 -5.376,-1.62133 z"
       style="font-style:normal;font-variant:normal;font-weight:500;font-stretch:normal;font-size:42.66666794px;line-height:100%;font-family:'Bliss 2';-inkscape-font-specification:'Bliss 2, Medium';text-align:start;writing-mode:lr-tb;text-anchor:start;fill:#ffffff;fill-opacity:1;stroke-width:1.06666672px"
       id="path833" />
    <path
       d="m 643.40356,104.5049 c 1.536,0.93867 3.968,1.87733 6.95467,1.87733 4.26666,0 7.97866,-1.83466 7.97866,-6.144 0,-6.997331 -9.51466,-5.631997 -9.51466,-9.301331 0,-1.578666 1.408,-2.133333 3.2,-2.133333 2.09066,0 3.84,0.554667 5.41866,1.237333 v -3.797333 c -1.536,-0.597334 -3.456,-0.981334 -5.58933,-0.981334 -4.65067,0 -7.38133,2.517334 -7.38133,5.930667 0,6.698667 9.472,5.376 9.472,9.130671 0,1.792 -1.664,2.51733 -3.79734,2.51733 -2.13333,0 -3.968,-0.72533 -5.376,-1.62133 z"
       style="font-style:normal;font-variant:normal;font-weight:500;font-stretch:normal;font-size:42.66666794px;line-height:100%;font-family:'Bliss 2';-inkscape-font-specification:'Bliss 2, Medium';text-align:start;writing-mode:lr-tb;text-anchor:start;fill:#ffffff;fill-opacity:1;stroke-width:1.06666672px"
       id="path835" />
    <path
       d="m 662.27289,105.95557 h 4.43733 V 91.491566 c 1.74933,-1.621333 2.944,-2.261333 4.30933,-2.261333 0.64,0 1.36534,0.128 2.13334,0.554666 l 1.57866,-3.797333 c -0.72533,-0.469334 -1.74933,-0.725334 -2.64533,-0.725334 -1.92,0 -3.62667,0.853334 -5.58933,2.858667 l -0.512,-2.346667 h -3.712 z"
       style="font-style:normal;font-variant:normal;font-weight:500;font-stretch:normal;font-size:42.66666794px;line-height:100%;font-family:'Bliss 2';-inkscape-font-specification:'Bliss 2, Medium';text-align:start;writing-mode:lr-tb;text-anchor:start;fill:#ffffff;fill-opacity:1;stroke-width:1.06666672px"
       id="path837" />
    <path
       d="m 685.39755,106.38223 c 5.888,0 9.81334,-4.56533 9.81334,-10.581331 0,-6.016 -3.92534,-10.538667 -9.81334,-10.538667 -5.93066,0 -9.856,4.522667 -9.856,10.538667 0,6.016001 3.968,10.581331 9.856,10.581331 z m 0,-3.62666 c -3.37066,0 -5.29066,-2.901337 -5.29066,-6.954671 0,-4.010666 1.92,-6.912 5.29066,-6.912 3.37067,0 5.248,2.901334 5.248,6.912 0,4.053334 -1.87733,6.954671 -5.248,6.954671 z"
       style="font-style:normal;font-variant:normal;font-weight:500;font-stretch:normal;font-size:42.66666794px;line-height:100%;font-family:'Bliss 2';-inkscape-font-specification:'Bliss 2, Medium';text-align:start;writing-mode:lr-tb;text-anchor:start;fill:#ffffff;fill-opacity:1;stroke-width:1.06666672px"
       id="path839" />
    <path
       d="m 708.14755,106.38223 c 5.888,0 9.81334,-4.56533 9.81334,-10.581331 0,-6.016 -3.92534,-10.538667 -9.81334,-10.538667 -5.93066,0 -9.856,4.522667 -9.856,10.538667 0,6.016001 3.968,10.581331 9.856,10.581331 z m 0,-3.62666 c -3.37066,0 -5.29066,-2.901337 -5.29066,-6.954671 0,-4.010666 1.92,-6.912 5.29066,-6.912 3.37067,0 5.248,2.901334 5.248,6.912 0,4.053334 -1.87733,6.954671 -5.248,6.954671 z"
       style="font-style:normal;font-variant:normal;font-weight:500;font-stretch:normal;font-size:42.66666794px;line-height:100%;font-family:'Bliss 2';-inkscape-font-specification:'Bliss 2, Medium';text-align:start;writing-mode:lr-tb;text-anchor:start;fill:#ffffff;fill-opacity:1;stroke-width:1.06666672px"
       id="path841" />
    <path
       d="m 722.02289,105.95557 h 4.43733 V 91.491566 c 1.57867,-1.322667 3.41333,-2.346667 5.248,-2.346667 2.64533,0 3.15733,2.090667 3.15733,4.650667 v 12.160004 h 4.43734 V 92.430233 c 0,-0.341334 0,-0.682667 -0.0427,-0.938667 1.62133,-1.322667 3.456,-2.346667 5.248,-2.346667 2.688,0 3.2,2.048 3.2,4.608 v 12.202671 h 4.43734 V 92.515566 c 0,-5.248 -2.98667,-7.253334 -6.44267,-7.253334 -2.34667,0 -4.90667,1.152 -7.33867,3.242667 -0.98133,-2.133333 -2.90133,-3.242667 -5.29067,-3.242667 -2.51733,0 -4.82133,1.237334 -6.86933,2.901334 l -0.46933,-2.389334 h -3.712 z"
       style="font-style:normal;font-variant:normal;font-weight:500;font-stretch:normal;font-size:42.66666794px;line-height:100%;font-family:'Bliss 2';-inkscape-font-specification:'Bliss 2, Medium';text-align:start;writing-mode:lr-tb;text-anchor:start;fill:#ffffff;fill-opacity:1;stroke-width:1.06666672px"
       id="path843" />
    <path
       d="m 578.14755,149.0489 c 5.888,0 9.81334,-4.56533 9.81334,-10.58133 0,-6.016 -3.92534,-10.53867 -9.81334,-10.53867 -5.93066,0 -9.856,4.52267 -9.856,10.53867 0,6.016 3.968,10.58133 9.856,10.58133 z m 0,-3.62667 c -3.37066,0 -5.29066,-2.90133 -5.29066,-6.95466 0,-4.01067 1.92,-6.912 5.29066,-6.912 3.37067,0 5.248,2.90133 5.248,6.912 0,4.05333 -1.87733,6.95466 -5.248,6.95466 z"
       style="font-style:normal;font-variant:normal;font-weight:500;font-stretch:normal;font-size:42.66666794px;line-height:100%;font-family:'Bliss 2';-inkscape-font-specification:'Bliss 2, Medium';text-align:start;writing-mode:lr-tb;text-anchor:start;fill:#ffffff;fill-opacity:1;stroke-width:1.06666672px"
       id="path845" />
    <path
       d="m 592.02289,148.62223 h 4.43733 v -14.37866 c 1.62133,-1.36534 3.456,-2.432 5.33333,-2.432 2.688,0 3.28534,2.13333 3.28534,4.77866 v 12.032 h 4.43733 v -13.44 c 0,-5.54666 -3.11467,-7.25333 -6.31467,-7.25333 -2.51733,0 -4.82133,1.152 -6.95466,2.90133 l -0.46934,-2.38933 h -3.75466 z"
       style="font-style:normal;font-variant:normal;font-weight:500;font-stretch:normal;font-size:42.66666794px;line-height:100%;font-family:'Bliss 2';-inkscape-font-specification:'Bliss 2, Medium';text-align:start;writing-mode:lr-tb;text-anchor:start;fill:#ffffff;fill-opacity:1;stroke-width:1.06666672px"
       id="path847" />
    <path
       d="m 630.27422,149.0489 c 2.00534,0 4.224,-0.59733 5.632,-1.57867 l -1.408,-3.072 c -0.81066,0.55467 -1.92,1.024 -3.15733,1.024 -1.32267,0 -2.00533,-0.72533 -2.00533,-2.56 v -10.92266 h 4.94933 l 1.10933,-3.49867 h -6.05866 v -6.016 l -4.43734,1.36533 v 4.65067 h -3.54133 v 3.49867 h 3.54133 v 11.904 c 0,3.28533 2.00534,5.20533 5.376,5.20533 z"
       style="font-style:normal;font-variant:normal;font-weight:500;font-stretch:normal;font-size:42.66666794px;line-height:100%;font-family:'Bliss 2';-inkscape-font-specification:'Bliss 2, Medium';text-align:start;writing-mode:lr-tb;text-anchor:start;fill:#ffffff;fill-opacity:1;stroke-width:1.06666672px"
       id="path849" />
    <path
       d="m 639.23622,148.62223 h 4.43733 v -14.37866 c 1.62134,-1.36534 3.456,-2.432 5.33334,-2.432 2.688,0 3.28533,2.13333 3.28533,4.77866 v 12.032 h 4.43733 v -13.44 c 0,-5.54666 -3.11466,-7.25333 -6.31466,-7.25333 -2.56,0 -4.82134,1.19467 -6.74134,2.85867 v -12.37334 h -4.43733 z"
       style="font-style:normal;font-variant:normal;font-weight:500;font-stretch:normal;font-size:42.66666794px;line-height:100%;font-family:'Bliss 2';-inkscape-font-specification:'Bliss 2, Medium';text-align:start;writing-mode:lr-tb;text-anchor:start;fill:#ffffff;fill-opacity:1;stroke-width:1.06666672px"
       id="path851" />
    <path
       d="m 670.77756,149.0489 c 2.38933,0 4.90667,-0.59733 6.86933,-1.87733 l -1.32266,-3.02934 c -1.45067,0.81067 -3.072,1.36534 -5.07734,1.36534 -3.66933,0 -5.93066,-2.432 -6.016,-5.888 h 12.97067 v -1.06667 c 0,-6.528 -3.15733,-10.624 -8.66133,-10.624 -5.46134,0 -8.832,4.43733 -8.832,10.53867 0,5.58933 3.02933,10.58133 10.06933,10.58133 z m -5.58933,-12.58667 c 0.0427,-2.73066 1.62133,-5.07733 4.30933,-5.07733 2.85867,0 4.096,2.51733 4.18133,5.07733 z"
       style="font-style:normal;font-variant:normal;font-weight:500;font-stretch:normal;font-size:42.66666794px;line-height:100%;font-family:'Bliss 2';-inkscape-font-specification:'Bliss 2, Medium';text-align:start;writing-mode:lr-tb;text-anchor:start;fill:#ffffff;fill-opacity:1;stroke-width:1.06666672px"
       id="path853" />
    <path
       d="m 692.67089,148.62223 h 4.48 v -11.264 h 2.64534 c 0.768,0.17067 1.792,1.36534 3.15733,3.79734 l 4.30933,7.46666 h 5.16267 l -4.82133,-8.27733 c -1.49334,-2.51733 -2.60267,-4.05333 -3.456,-4.52267 v -0.0853 c 3.37066,-1.06667 5.54666,-3.54133 5.54666,-7.33867 0,-2.73066 -1.10933,-5.20533 -3.88266,-6.61333 -1.45067,-0.81067 -3.37067,-1.28 -6.10134,-1.28 h -7.04 z m 4.48,-14.976 v -9.472 h 2.432 c 1.74934,0 2.85867,0.384 3.62667,0.98134 1.23733,0.768 1.83467,2.13333 1.83467,3.712 0,1.87733 -0.85334,3.24266 -2.13334,4.01066 -0.93866,0.512 -1.96266,0.768 -3.37066,0.768 z"
       style="font-style:normal;font-variant:normal;font-weight:500;font-stretch:normal;font-size:42.66666794px;line-height:100%;font-family:'Bliss 2';-inkscape-font-specification:'Bliss 2, Medium';text-align:start;writing-mode:lr-tb;text-anchor:start;fill:#ffffff;fill-opacity:1;stroke-width:1.06666672px"
       id="path855" />
    <path
       d="m 724.19423,149.0489 c 2.38933,0 4.90667,-0.59733 6.86933,-1.87733 l -1.32266,-3.02934 c -1.45067,0.81067 -3.072,1.36534 -5.07734,1.36534 -3.66933,0 -5.93066,-2.432 -6.016,-5.888 h 12.97067 v -1.06667 c 0,-6.528 -3.15733,-10.624 -8.66133,-10.624 -5.46134,0 -8.832,4.43733 -8.832,10.53867 0,5.58933 3.02933,10.58133 10.06933,10.58133 z m -5.58933,-12.58667 c 0.0427,-2.73066 1.62133,-5.07733 4.30933,-5.07733 2.85867,0 4.096,2.51733 4.18133,5.07733 z"
       style="font-style:normal;font-variant:normal;font-weight:500;font-stretch:normal;font-size:42.66666794px;line-height:100%;font-family:'Bliss 2';-inkscape-font-specification:'Bliss 2, Medium';text-align:start;writing-mode:lr-tb;text-anchor:start;fill:#ffffff;fill-opacity:1;stroke-width:1.06666672px"
       id="path857" />
    <path
       d="m 744.77756,149.0489 c 2.38933,0 4.90667,-0.59733 6.86933,-1.87733 l -1.32266,-3.02934 c -1.45067,0.81067 -3.072,1.36534 -5.07734,1.36534 -3.66933,0 -5.93066,-2.432 -6.016,-5.888 h 12.97067 v -1.06667 c 0,-6.528 -3.15733,-10.624 -8.66133,-10.624 -5.46134,0 -8.832,4.43733 -8.832,10.53867 0,5.58933 3.02933,10.58133 10.06933,10.58133 z m -5.58933,-12.58667 c 0.0427,-2.73066 1.62133,-5.07733 4.30933,-5.07733 2.85867,0 4.096,2.51733 4.18133,5.07733 z"
       style="font-style:normal;font-variant:normal;font-weight:500;font-stretch:normal;font-size:42.66666794px;line-height:100%;font-family:'Bliss 2';-inkscape-font-specification:'Bliss 2, Medium';text-align:start;writing-mode:lr-tb;text-anchor:start;fill:#ffffff;fill-opacity:1;stroke-width:1.06666672px"
       id="path859" />
    <path
       d="m 757.85155,148.62223 h 4.43734 v -16.68266 h 4.096 l 1.10933,-3.49867 h -5.20533 v -3.11467 c 0,-1.96266 0.81066,-3.072 2.60266,-3.072 0.81067,0 1.62134,0.21334 2.432,0.512 l 0.896,-3.54133 c -1.23733,-0.55467 -2.64533,-0.81067 -3.88266,-0.81067 -3.66934,0 -6.48534,2.176 -6.48534,6.99734 v 3.02933 h -2.90133 v 3.49867 h 2.90133 z"
       style="font-style:normal;font-variant:normal;font-weight:500;font-stretch:normal;font-size:42.66666794px;line-height:100%;font-family:'Bliss 2';-inkscape-font-specification:'Bliss 2, Medium';text-align:start;writing-mode:lr-tb;text-anchor:start;fill:#ffffff;fill-opacity:1;stroke-width:1.06666672px"
       id="path861" />
  </g>
</svg>
